<?xml version="1.0" encoding="utf-8"?>
<svg xmlns="http://www.w3.org/2000/svg" viewBox="899.723 262.0247 65 65" width="65px" height="65px"><defs><filter id="filter18866" width="1" y="0" x="0" height="1" color-interpolation-filters="sRGB"><feColorMatrix id="feColorMatrix18868" type="saturate" values="1" result="fbSourceGraphic"/><feColorMatrix id="feColorMatrix18870" in="fbSourceGraphic" values="-1 0 0 0 1 0 -1 0 0 1 0 0 -1 0 1 0 0 0 1 0 " result="fbSourceGraphic"/><feColorMatrix id="feColorMatrix19012" in="fbSourceGraphic" values="0 0 0 -1 0 0 0 0 -1 0 0 0 0 -1 0 0 0 0 1 0" result="fbSourceGraphicAlpha"/><feColorMatrix id="feColorMatrix19014" values="0" in="fbSourceGraphic" type="saturate" result="result2"/><feFlood id="feFlood19016" flood-color="rgb(160,67,0)" result="result1"/><feBlend id="feBlend19018" mode="multiply" in="result2" in2="result1" result="result5"/><feBlend id="feBlend19020" mode="screen" in2="result2" result="result3"/><feComposite id="feComposite19022" in2="result2" k3="0" k2="1" k1="0" result="result4" k4="0" operator="arithmetic"/><feComposite id="feComposite19024" operator="in" in2="fbSourceGraphicAlpha" in="result4"/></filter></defs><g id="g3790" filter="url(#filter18866)" transform="matrix(1, 0, 0, 1, 807.515998840332, 251.38000488281247)"><path id="path12855-2" stroke-linejoin="bevel" d="m75 42.5c0 17.949-14.551 32.5-32.5 32.5s-32.5-14.551-32.5-32.5 14.551-32.5 32.5-32.5 32.5 14.551 32.5 32.5z" transform="translate(82.207 .64466)" stroke="#000" stroke-linecap="round" stroke-width="2" fill="#fedaa4"/><path id="path12857-8" stroke-linejoin="bevel" d="m75 42.5c0 17.949-14.551 32.5-32.5 32.5s-32.5-14.551-32.5-32.5 14.551-32.5 32.5-32.5 32.5 14.551 32.5 32.5z" transform="matrix(.89566 0 0 .89566 86.641 5.0791)" stroke="#c00" stroke-linecap="round" stroke-width="2.233" fill="none"/><g id="g3932" stroke="#c00" stroke-width="1.2127" fill="none" transform="matrix(0 1.6096 -1.6897 0 1021.1 -482.73)"><path id="path3926" stroke-linejoin="round" style="color:#000000" stroke-linecap="round" d="m331.46 530.18c0 1.7086-1.385 3.0936-3.0936 3.0936-1.7085 0-3.0936-1.385-3.0936-3.0936 0-1.7085 1.385-3.0936 3.0936-3.0936s3.0936 1.385 3.0936 3.0936z"/><path id="path3928" stroke-linejoin="round" style="color:#000000" d="m333.48 530.49c0 2.8243-2.2896 5.1139-5.1139 5.1139s-5.1139-2.2896-5.1139-5.1139 2.2896-5.1139 5.1139-5.1139 5.1139 2.2896 5.1139 5.1139z" transform="translate(0 -.31567)" stroke-linecap="round"/><path id="path3930" d="m328.93 525.19c0.10522-1.4521-0.29463-5.2402-0.56821-8.2706l-3.3461-0.0631c-2.8283 7.3093-5.76 14.201-4.9245 18.183 0.83548 3.982 5.1928 5.5383 7.955 2.4622l1.9572 2.7779 0.00003 3.7249 2.2728 0.18944-0.0631-4.3563-2.9042-4.4825"/></g></g></svg>