<?xml version="1.0" encoding="utf-8"?>
<svg xmlns="http://www.w3.org/2000/svg" viewBox="899.723 344.94 65 65" width="65px" height="65px"><defs><filter id="filter18860" width="1" y="0" x="0" height="1" color-interpolation-filters="sRGB"><feColorMatrix id="feColorMatrix18862" type="saturate" values="1" result="fbSourceGraphic"/><feColorMatrix id="feColorMatrix18864" in="fbSourceGraphic" values="-1 0 0 0 1 0 -1 0 0 1 0 0 -1 0 1 0 0 0 1 0 " result="fbSourceGraphic"/><feColorMatrix id="feColorMatrix18998" in="fbSourceGraphic" values="0 0 0 -1 0 0 0 0 -1 0 0 0 0 -1 0 0 0 0 1 0" result="fbSourceGraphicAlpha"/><feColorMatrix id="feColorMatrix19000" values="0" in="fbSourceGraphic" type="saturate" result="result2"/><feFlood id="feFlood19002" flood-color="rgb(160,67,0)" result="result1"/><feBlend id="feBlend19004" mode="multiply" in="result2" in2="result1" result="result5"/><feBlend id="feBlend19006" mode="screen" in2="result2" result="result3"/><feComposite id="feComposite19008" in2="result2" k3="0" k2="1" k1="0" result="result4" k4="0" operator="arithmetic"/><feComposite id="feComposite19010" operator="in" in2="fbSourceGraphicAlpha" in="result4"/></filter></defs><g id="g18631" filter="url(#filter18860)" transform="matrix(1, 0, 0, 1, 694.1199951171875, -198.3800048828125)"><g id="g3013" stroke-linejoin="bevel" stroke-linecap="round" transform="translate(118.02 532.07)"><path id="path12855-0" d="m75 42.5c0 17.949-14.551 32.5-32.5 32.5s-32.5-14.551-32.5-32.5 14.551-32.5 32.5-32.5 32.5 14.551 32.5 32.5z" transform="translate(77.583 1.25)" stroke="#000" stroke-width="2" fill="#fedaa4"/><path id="path12857-9" d="m75 42.5c0 17.949-14.551 32.5-32.5 32.5s-32.5-14.551-32.5-32.5 14.551-32.5 32.5-32.5 32.5 14.551 32.5 32.5z" transform="matrix(.89566 0 0 .89566 82.018 5.6844)" stroke="#c00" stroke-width="2.233" fill="none"/></g><g id="g4058" stroke="#c00" stroke-width="1.2875" fill="#fedaa4" transform="matrix(1.5534 0 0 1.5534 -422.68 -56.483)"><path id="path4008" stroke-linejoin="round" style="color:#000000" stroke-linecap="round" d="m419.5 403.59c-0.86079 1.1323-1.3438 2.5334-1.3438 4.0312 0 1.8607 0.79538 3.547 2.0625 4.7812-2.5092 1.4804-4.3113 4.0256-4.8438 7h20c-0.53248-2.9744-2.3345-5.5196-4.8438-7 1.2671-1.2343 2.0312-2.9205 2.0312-4.7812 0-1.4339-0.49195-2.7703-1.2812-3.875l-11.78-0.15z"/><path id="path4016" stroke-linejoin="round" d="m431.42 403.68-12.327-0.0975-2.7903-6.748 6.4827 1.4738 2.7507-3.6346 2.4458 3.9719 7.0689-1.3042-3.6308 6.3385z"/><path id="path4018" stroke-linecap="round" d="m428.9 406.54-1.9687 1.9795v0"/><path id="path4018-5" stroke-linecap="round" d="m421.83 406.45 1.9687 1.9795v0"/></g></g></svg>