<?xml version="1.0" encoding="utf-8"?>
<svg xmlns="http://www.w3.org/2000/svg" viewBox="823.417 43.6798 65 65" width="65px" height="65px"><defs><filter id="filter18860" width="1" y="0" x="0" height="1" color-interpolation-filters="sRGB"><feColorMatrix id="feColorMatrix18862" type="saturate" values="1" result="fbSourceGraphic"/><feColorMatrix id="feColorMatrix18864" in="fbSourceGraphic" values="-1 0 0 0 1 0 -1 0 0 1 0 0 -1 0 1 0 0 0 1 0 " result="fbSourceGraphic"/><feColorMatrix id="feColorMatrix18998" in="fbSourceGraphic" values="0 0 0 -1 0 0 0 0 -1 0 0 0 0 -1 0 0 0 0 1 0" result="fbSourceGraphicAlpha"/><feColorMatrix id="feColorMatrix19000" values="0" in="fbSourceGraphic" type="saturate" result="result2"/><feFlood id="feFlood19002" flood-color="rgb(160,67,0)" result="result1"/><feBlend id="feBlend19004" mode="multiply" in="result2" in2="result1" result="result5"/><feBlend id="feBlend19006" mode="screen" in2="result2" result="result3"/><feComposite id="feComposite19008" in2="result2" k3="0" k2="1" k1="0" result="result4" k4="0" operator="arithmetic"/><feComposite id="feComposite19010" operator="in" in2="fbSourceGraphicAlpha" in="result4"/></filter></defs><g id="object-1" transform="matrix(1, 0, 0, 1, 714.1199951171875, -198.3800048828125)"><g id="g3013" stroke-linejoin="bevel" stroke-linecap="round" transform="matrix(1, 0, 0, 1, 21.713959, 230.80983)" filter="url(#filter18860)"><path id="path12855-0" d="m75 42.5c0 17.949-14.551 32.5-32.5 32.5s-32.5-14.551-32.5-32.5 14.551-32.5 32.5-32.5 32.5 14.551 32.5 32.5z" transform="translate(77.583 1.25)" stroke="#000" stroke-width="2" fill="#fedaa4"/><path id="path12857-9" d="m75 42.5c0 17.949-14.551 32.5-32.5 32.5s-32.5-14.551-32.5-32.5 14.551-32.5 32.5-32.5 32.5 14.551 32.5 32.5z" transform="matrix(.89566 0 0 .89566 82.018 5.6844)" stroke="#c00" stroke-width="2.233" fill="none"/></g><path id="path4016" stroke-linejoin="round" d="M 156.232 287.171 L 127.31 286.849 L 120.761 264.487 L 135.972 269.37 L 142.426 257.325 L 148.166 270.488 L 164.749 266.166 L 156.232 287.171 Z" stroke="#c00" stroke-width="1.2875" fill="#fedaa4" style="" filter="url(#filter18860)"/></g></svg>