<?xml version="1.0" encoding="utf-8"?>
<svg xmlns="http://www.w3.org/2000/svg" viewBox="1176.206 585.631 65 65" width="65px" height="65px"><defs><filter id="filter18818" width="1" y="0" x="0" height="1" color-interpolation-filters="sRGB"><feColorMatrix id="feColorMatrix18820" type="saturate" values="1" result="fbSourceGraphic"/><feColorMatrix id="feColorMatrix18822" in="fbSourceGraphic" values="-1 0 0 0 1 0 -1 0 0 1 0 0 -1 0 1 0 0 0 1 0 " result="fbSourceGraphic"/><feColorMatrix id="feColorMatrix18900" in="fbSourceGraphic" values="0 0 0 -1 0 0 0 0 -1 0 0 0 0 -1 0 0 0 0 1 0" result="fbSourceGraphicAlpha"/><feColorMatrix id="feColorMatrix18902" values="0" in="fbSourceGraphic" type="saturate" result="result2"/><feFlood id="feFlood18904" flood-color="rgb(160,67,0)" result="result1"/><feBlend id="feBlend18906" mode="multiply" in="result2" in2="result1" result="result5"/><feBlend id="feBlend18908" mode="screen" in2="result2" result="result3"/><feComposite id="feComposite18910" in2="result2" k3="0" k2="1" k1="0" result="result4" k4="0" operator="arithmetic"/><feComposite id="feComposite18912" operator="in" in2="fbSourceGraphicAlpha" in="result4"/></filter></defs><g id="object-0" transform="matrix(1, 0, 0, 1, 714.1199951171875, -198.3800048828125)"><g><path id="path12855-1-4" d="M 527.086 816.511 C 527.086 834.46 512.535 849.011 494.586 849.011 C 476.637 849.011 462.086 834.46 462.086 816.511 C 462.086 798.562 476.637 784.011 494.586 784.011 C 512.535 784.011 527.086 798.562 527.086 816.511 Z" stroke="#000" stroke-width="2" fill="#fedaa4" stroke-linejoin="bevel" filter="url(#filter18818)" stroke-linecap="round"/><path id="path12857-8-2" d="M 523.695 816.511 C 523.695 832.587 510.662 845.62 494.586 845.62 C 478.509 845.62 465.477 832.587 465.477 816.511 C 465.477 800.435 478.509 787.402 494.586 787.402 C 510.662 787.402 523.695 800.435 523.695 816.511 Z" stroke="#c00" stroke-width="2.233" fill="none" stroke-linejoin="bevel" filter="url(#filter18818)" stroke-linecap="round"/></g></g></svg>