<?xml version="1.0" encoding="utf-8"?>
<svg xmlns="http://www.w3.org/2000/svg" viewBox="901.703 619.3243 65 65" width="65px" height="65px"><defs><filter id="filter18818" width="1" y="0" x="0" height="1" color-interpolation-filters="sRGB"><feColorMatrix id="feColorMatrix18820" type="saturate" values="1" result="fbSourceGraphic"/><feColorMatrix id="feColorMatrix18822" in="fbSourceGraphic" values="-1 0 0 0 1 0 -1 0 0 1 0 0 -1 0 1 0 0 0 1 0 " result="fbSourceGraphic"/><feColorMatrix id="feColorMatrix18900" in="fbSourceGraphic" values="0 0 0 -1 0 0 0 0 -1 0 0 0 0 -1 0 0 0 0 1 0" result="fbSourceGraphicAlpha"/><feColorMatrix id="feColorMatrix18902" values="0" in="fbSourceGraphic" type="saturate" result="result2"/><feFlood id="feFlood18904" flood-color="rgb(160,67,0)" result="result1"/><feBlend id="feBlend18906" mode="multiply" in="result2" in2="result1" result="result5"/><feBlend id="feBlend18908" mode="screen" in2="result2" result="result3"/><feComposite id="feComposite18910" in2="result2" k3="0" k2="1" k1="0" result="result4" k4="0" operator="arithmetic"/><feComposite id="feComposite18912" operator="in" in2="fbSourceGraphicAlpha" in="result4"/></filter></defs><g id="g3727" filter="url(#filter18818)" stroke-linecap="round" transform="matrix(1, 0, 0, 1, 819.0419692993164, 607.6190185546875)"><g id="g2951" stroke-linejoin="bevel"><path id="path12855-1-4" d="m75 42.5c0 17.949-14.551 32.5-32.5 32.5s-32.5-14.551-32.5-32.5 14.551-32.5 32.5-32.5 32.5 14.551 32.5 32.5z" transform="translate(72.661 1.7053)" stroke="#000" stroke-width="2" fill="#fedaa4"/><path id="path12857-8-2" d="m75 42.5c0 17.949-14.551 32.5-32.5 32.5s-32.5-14.551-32.5-32.5 14.551-32.5 32.5-32.5 32.5 14.551 32.5 32.5z" transform="matrix(.89566 0 0 .89566 77.095 6.1398)" stroke="#c00" stroke-width="2.233" fill="none"/></g><path id="path3905-5" stroke-linejoin="round" style="color:#000000" d="m131.55 63.633c-1.1478-4.8106-4.3237-8.8449-8.5969-11.074 2.7322-2.2559 4.4684-5.6607 4.4684-9.4712 0-5.3996-3.5074-9.97-8.3541-11.608 0.36338-0.65045 0.58286-1.3877 0.58286-2.1857 0-2.4929-2.0241-4.517-4.517-4.517s-4.517 2.0241-4.517 4.517c0 0.8024 0.26432 1.5327 0.63143 2.1857-4.8636 1.6287-8.3541 6.1965-8.3541 11.608 0 3.8105 1.7496 7.2152 4.4684 9.4712-4.2732 2.2291-7.4492 6.2634-8.5969 11.074h32.785z" stroke="#c00" stroke-width="2" fill="none"/></g></svg>