<?xml version="1.0" encoding="utf-8"?>
<svg xmlns="http://www.w3.org/2000/svg" viewBox="78.026 76.665 639.696 719.736" width="639.696px" height="719.736px"><g id="g14057" stroke-linejoin="bevel" style="color:#000000" transform="matrix(0.800000011920929, 0, 0, 0.800000011920929, 580.7299957275391, -155.0950050354004)" stroke="#000" stroke-linecap="round" stroke-width="2.5" fill="#feebce"><rect id="rect12467" opacity=".8" style="color:#000000" height="99.613" width="99.613" y="289.7" x="-628.38"/><rect id="rect12469" opacity=".8" style="color:#000000" height="99.613" width="99.613" y="289.7" x="-528.38"/><rect id="rect12477" opacity=".8" style="color:#000000" height="99.613" width="99.613" y="289.7" x="-428.38"/><rect id="rect12479" opacity=".8" style="color:#000000" height="99.613" width="99.613" y="289.7" x="-328.38"/><rect id="rect12493" opacity=".8" style="color:#000000" height="99.613" width="99.613" y="289.7" x="-228.38"/><rect id="rect12495" opacity=".8" style="color:#000000" height="99.613" width="99.613" y="289.7" x="-128.38"/><rect id="rect12499" opacity=".8" style="color:#000000" height="99.613" width="99.613" y="289.7" x="-28.378"/><rect id="rect12501" opacity=".8" style="color:#000000" height="99.613" width="99.613" y="289.7" x="71.622"/><rect id="rect12525" opacity=".8" style="color:#000000" height="99.613" width="99.613" y="389.7" x="-628.38"/><rect id="rect12527" opacity=".8" style="color:#000000" height="99.613" width="99.613" y="389.7" x="-528.38"/><rect id="rect12531" opacity=".8" style="color:#000000" height="99.613" width="99.613" y="389.7" x="-428.38"/><rect id="rect12533" opacity=".8" style="color:#000000" height="99.613" width="99.613" y="389.7" x="-328.38"/><rect id="rect12539" opacity=".8" style="color:#000000" height="99.613" width="99.613" y="389.7" x="-228.38"/><rect id="rect12541" opacity=".8" style="color:#000000" height="99.613" width="99.613" y="389.7" x="-128.38"/><rect id="rect12545" opacity=".8" style="color:#000000" height="99.613" width="99.613" y="389.7" x="-28.378"/><rect id="rect12547" opacity=".8" style="color:#000000" height="99.613" width="99.613" y="389.7" x="71.622"/><rect id="rect12589" opacity=".8" style="color:#000000" height="99.613" width="99.613" y="489.7" x="-628.38"/><rect id="rect12591" opacity=".8" style="color:#000000" height="99.613" width="99.613" y="489.7" x="-528.38"/><rect id="rect12595" opacity=".8" style="color:#000000" height="99.613" width="99.613" y="489.7" x="-428.38"/><rect id="rect12597" opacity=".8" style="color:#000000" height="99.613" width="99.613" y="489.7" x="-328.38"/><rect id="rect12603" opacity=".8" style="color:#000000" height="99.613" width="99.613" y="489.7" x="-228.38"/><rect id="rect12605" opacity=".8" style="color:#000000" height="99.613" width="99.613" y="489.7" x="-128.38"/><rect id="rect12609" opacity=".8" style="color:#000000" height="99.613" width="99.613" y="489.7" x="-28.378"/><rect id="rect12611" opacity=".8" style="color:#000000" height="99.613" width="99.613" y="489.7" x="71.622"/><rect id="rect12619" opacity=".8" style="color:#000000" height="99.613" width="99.613" y="589.7" x="-628.38"/><rect id="rect12621" opacity=".8" style="color:#000000" height="99.613" width="99.613" y="589.7" x="-528.38"/><rect id="rect12625" opacity=".8" style="color:#000000" height="99.613" width="99.613" y="589.7" x="-428.38"/><rect id="rect12627" opacity=".8" style="color:#000000" height="99.613" width="99.613" y="589.7" x="-328.38"/><rect id="rect12633" opacity=".8" style="color:#000000" height="99.613" width="99.613" y="589.7" x="-228.38"/><rect id="rect12635" opacity=".8" style="color:#000000" height="99.613" width="99.613" y="589.7" x="-128.38"/><rect id="rect12639" opacity=".8" style="color:#000000" height="99.613" width="99.613" y="589.7" x="-28.378"/><rect id="rect12641" opacity=".8" style="color:#000000" height="99.613" width="99.613" y="589.7" x="71.622"/><rect id="rect12717" opacity=".8" style="color:#000000" height="99.613" width="99.613" y="789.7" x="-628.38"/><rect id="rect12719" opacity=".8" style="color:#000000" height="99.613" width="99.613" y="789.7" x="-528.38"/><rect id="rect12723" opacity=".8" style="color:#000000" height="99.613" width="99.613" y="789.7" x="-428.38"/><rect id="rect12725" opacity=".8" style="color:#000000" height="99.613" width="99.613" y="789.7" x="-328.38"/><rect id="rect12731" opacity=".8" style="color:#000000" height="99.613" width="99.613" y="789.7" x="-228.38"/><rect id="rect12733" opacity=".8" style="color:#000000" height="99.613" width="99.613" y="789.7" x="-128.38"/><rect id="rect12737" opacity=".8" style="color:#000000" height="99.613" width="99.613" y="789.7" x="-28.378"/><rect id="rect12739" opacity=".8" style="color:#000000" height="99.613" width="99.613" y="789.7" x="71.622"/><rect id="rect12747" opacity=".8" style="color:#000000" height="99.613" width="99.613" y="889.7" x="-628.38"/><rect id="rect12749" opacity=".8" style="color:#000000" height="99.613" width="99.613" y="889.7" x="-528.38"/><rect id="rect12753" opacity=".8" style="color:#000000" height="99.613" width="99.613" y="889.7" x="-428.38"/><rect id="rect12755" opacity=".8" style="color:#000000" height="99.613" width="99.613" y="889.7" x="-328.38"/><rect id="rect12761" opacity=".8" style="color:#000000" height="99.613" width="99.613" y="889.7" x="-228.38"/><rect id="rect12763" opacity=".8" style="color:#000000" height="99.613" width="99.613" y="889.7" x="-128.38"/><rect id="rect12767" opacity=".8" style="color:#000000" height="99.613" width="99.613" y="889.7" x="-28.378"/><rect id="rect12769" opacity=".8" style="color:#000000" height="99.613" width="99.613" y="889.7" x="71.622"/><rect id="rect12779" opacity=".8" style="color:#000000" height="99.613" width="99.613" y="989.7" x="-628.38"/><rect id="rect12781" opacity=".8" style="color:#000000" height="99.613" width="99.613" y="989.7" x="-528.38"/><rect id="rect12785" opacity=".8" style="color:#000000" height="99.613" width="99.613" y="989.7" x="-428.38"/><rect id="rect12787" opacity=".8" style="color:#000000" height="99.613" width="99.613" y="989.7" x="-328.38"/><rect id="rect12793" opacity=".8" style="color:#000000" height="99.613" width="99.613" y="989.7" x="-228.38"/><rect id="rect12795" opacity=".8" style="color:#000000" height="99.613" width="99.613" y="989.7" x="-128.38"/><rect id="rect12799" opacity=".8" style="color:#000000" height="99.613" width="99.613" y="989.7" x="-28.378"/><rect id="rect12801" opacity=".8" style="color:#000000" height="99.613" width="99.613" y="989.7" x="71.622"/><g id="g13349" style="color:#000000" transform="translate(-37.143 77.143)"><rect id="rect12809" opacity=".8" style="color:#000000" height="99.613" width="99.613" y="1012.6" x="-591.23"/><rect id="rect12811" opacity=".8" style="color:#000000" height="99.613" width="99.613" y="1012.6" x="-491.23"/><rect id="rect12815" opacity=".8" style="color:#000000" height="99.613" width="99.613" y="1012.6" x="-391.23"/><rect id="rect12817" opacity=".8" style="color:#000000" height="99.613" width="99.613" y="1012.6" x="-291.23"/><rect id="rect12823" opacity=".8" style="color:#000000" height="99.613" width="99.613" y="1012.6" x="-191.23"/><rect id="rect12825" opacity=".8" style="color:#000000" height="99.613" width="99.613" y="1012.6" x="-91.235"/><rect id="rect12829" opacity=".8" style="color:#000000" height="99.613" width="99.613" y="1012.6" x="8.7651"/><rect id="rect12831" opacity=".8" style="color:#000000" height="99.613" width="99.613" y="1012.6" x="108.77"/></g><path id="rect13363" opacity=".8" style="color:#000000" d="m-628.38 689.69v99.625h799.62v-99.625z"/><g id="g13471" opacity=".8" style="color:#000000"><path id="path13464" style="color:#000000" d="m-328.07 290 199.51 199.5"/><g id="g13468" style="color:#000000"><path id="path13466" stroke-linejoin="bevel" style="color:#000000" d="m-128.56 290-199.51 199.5" stroke="#000" stroke-linecap="round" stroke-width="2.5" fill="#feebce"/></g></g><g id="g13476" opacity=".8" style="color:#000000" transform="translate(-.13281 699.87)"><path id="path13478" style="color:#000000" d="m-328.07 290 199.51 199.5"/><g id="g13480" style="color:#000000"><path id="path13482" stroke-linejoin="bevel" style="color:#000000" d="m-128.56 290-199.51 199.5" stroke="#000" stroke-linecap="round" stroke-width="2.5" fill="#feebce"/></g></g></g></svg>