<?xml version="1.0" encoding="utf-8"?>
<svg xmlns="http://www.w3.org/2000/svg" viewBox="1042.6779 443.268 65 65" width="65px" height="65px"><g id="g3827" stroke="#000" transform="matrix(1, 0, 0, 1, 812.6779327392578, 432.51800537109375)"><g id="g3823" stroke-linejoin="bevel" stroke-linecap="round"><path id="path12863-6-7" stroke-width="2" fill="#fedaa4" transform="translate(220 .75)" d="m75 42.5c0 17.949-14.551 32.5-32.5 32.5s-32.5-14.551-32.5-32.5 14.551-32.5 32.5-32.5 32.5 14.551 32.5 32.5z"/><path id="path12865-3-6" stroke-width="2.233" fill="none" transform="matrix(.89566 0 0 .89566 224.43 5.1844)" d="m75 42.5c0 17.949-14.551 32.5-32.5 32.5s-32.5-14.551-32.5-32.5 14.551-32.5 32.5-32.5 32.5 14.551 32.5 32.5z"/></g><g id="g4166-9-9" stroke-linejoin="round" transform="matrix(0 1.652 -1.549 0 1259.5 -543.02)"><path id="path4158-2-7" stroke-width="1.2503" fill="none" d="m358.98 643.06c1.253-1.1071 3.4434-1.5268 5.4464-1.0714l-0.14285 14.393c-0.0293 2.9478-7.4107-0.89285-7.4107-0.89285"/><path id="path4160-1-8" stroke-width="1.2503" fill="none" d="m354.38 646.92s3.024 0.66193 3.8393 2.6786c0.81534 2.0166-1.6071 8.2143-1.6071 8.2143s-9.73-4.5258-10.357-5.8036c-0.62718-1.2778 0.26786-4.5536 0.26786-4.5536-4.1714-7.7932 3.7209-9.5833 9.2451-10.671l0.31205-1.9616-4.8277-1.2058 0.0505-2.15c6.9105 1.1504 14.317 3.643 7.1844 8.9348 0 0 0.42022 1.5548 0.31833 3.0178-0.1019 1.463-4.4255 3.5001-4.4255 3.5001h-0.00003z"/><path id="path4162-2-5" stroke-width="1.2503" fill="none" d="m358.5 642.28-1.6397-12.762-1.6877 12.96 3.3273-0.19814z"/><path id="path4164-7-3" style="color:#000000" d="m367.41 444.73c0 0.41612-0.33733 0.75345-0.75345 0.75345-0.41611 0-0.75344-0.33733-0.75344-0.75345s0.33733-0.75345 0.75344-0.75345c0.41612 0 0.75345 0.33733 0.75345 0.75345z" transform="matrix(.74438 0 0 .74438 78.14 309.27)" stroke-linecap="round" stroke-width="1.6796" fill="#a00"/></g></g></svg>