<?xml version="1.0" encoding="utf-8"?>
<svg xmlns="http://www.w3.org/2000/svg" viewBox="1037.72 620.3127 65 65" width="65px" height="65px"><g id="g3766" stroke="#000" stroke-linecap="round" transform="matrix(1, 0, 0, 1, 861.0299987792969, 612.8499755859375)"><g id="g3762" stroke-linejoin="bevel"><path id="path12863-4" stroke-width="2" fill="#fedaa4" transform="translate(166.69 -2.5373)" d="m75 42.5c0 17.949-14.551 32.5-32.5 32.5s-32.5-14.551-32.5-32.5 14.551-32.5 32.5-32.5 32.5 14.551 32.5 32.5z"/><path id="path12865-3" stroke-width="2.233" fill="none" transform="matrix(.89566 0 0 .89566 171.13 1.8971)" d="m75 42.5c0 17.949-14.551 32.5-32.5 32.5s-32.5-14.551-32.5-32.5 14.551-32.5 32.5-32.5 32.5 14.551 32.5 32.5z"/></g><path id="path3905-5-0" stroke-linejoin="round" style="color:#000000" d="m225.58 59.391c-1.1478-4.8106-4.3237-8.8449-8.5969-11.074 2.7322-2.2559 4.4684-5.6607 4.4684-9.4712 0-5.3996-3.5074-9.97-8.3541-11.608 0.36338-0.65045 0.58286-1.3877 0.58286-2.1857 0-2.4929-2.0241-4.517-4.517-4.517s-4.517 2.0241-4.517 4.517c0 0.8024 0.26432 1.5327 0.63143 2.1857-4.8636 1.6287-8.3541 6.1965-8.3541 11.608 0 3.8105 1.7496 7.2152 4.4684 9.4712-4.2732 2.2291-7.4492 6.2634-8.5969 11.074h32.785z" stroke-width="2" fill="none"/></g></svg>