<?xml version="1.0" encoding="utf-8"?>
<svg xmlns="http://www.w3.org/2000/svg" viewBox="825.6482 135.8412 65 65" width="65px" height="65px"><g transform="matrix(1, 0, 0, 1, 482.04820251464844, -407.47882080078125)" id="object-0" stroke="#000"><g id="g3838" stroke-linejoin="bevel" stroke-linecap="round" transform="matrix(1, 0, 0, 1, 116.099998, 532.070007)"><path id="path12863-0" stroke-width="2" fill="#fedaa4" transform="translate(217.5 1.25)" d="m75 42.5c0 17.949-14.551 32.5-32.5 32.5s-32.5-14.551-32.5-32.5 14.551-32.5 32.5-32.5 32.5 14.551 32.5 32.5z"/><path id="path12865-1" stroke-width="2.233" fill="none" transform="matrix(.89566 0 0 .89566 221.93 5.6844)" d="m75 42.5c0 17.949-14.551 32.5-32.5 32.5s-32.5-14.551-32.5-32.5 14.551-32.5 32.5-32.5 32.5 14.551 32.5 32.5z"/></g><path id="path4016-5" stroke-linejoin="round" d="M 389.546 587.44 L 360.623 587.115 L 354.077 564.755 L 369.287 569.638 L 375.741 557.593 L 381.479 570.755 L 398.065 566.434 L 389.546 587.438 L 389.546 587.44 Z" stroke-width="1.2875" fill="#fedaa4" style=""/></g></svg>